<svg id="visual" viewBox="0 0 1920 1080" width="1920" height="1080" xmlns="http://www.w3.org/2000/svg" xmlns:xlink="http://www.w3.org/1999/xlink" version="1.1"><defs><linearGradient id="grad1_0" x1="43.8%" y1="0%" x2="100%" y2="100%"><stop offset="14.444444444444446%" stop-color="#ffcc00" stop-opacity="1"></stop><stop offset="85.55555555555554%" stop-color="#ffcc00" stop-opacity="1"></stop></linearGradient></defs><defs><linearGradient id="grad1_1" x1="43.8%" y1="0%" x2="100%" y2="100%"><stop offset="14.444444444444446%" stop-color="#ffcc00" stop-opacity="1"></stop><stop offset="85.55555555555554%" stop-color="#ff9f34" stop-opacity="1"></stop></linearGradient></defs><defs><linearGradient id="grad1_2" x1="43.8%" y1="0%" x2="100%" y2="100%"><stop offset="14.444444444444446%" stop-color="#fc7853" stop-opacity="1"></stop><stop offset="85.55555555555554%" stop-color="#ff9f34" stop-opacity="1"></stop></linearGradient></defs><defs><linearGradient id="grad1_3" x1="43.8%" y1="0%" x2="100%" y2="100%"><stop offset="14.444444444444446%" stop-color="#fc7853" stop-opacity="1"></stop><stop offset="85.55555555555554%" stop-color="#de5c69" stop-opacity="1"></stop></linearGradient></defs><defs><linearGradient id="grad1_4" x1="43.8%" y1="0%" x2="100%" y2="100%"><stop offset="14.444444444444446%" stop-color="#b24d74" stop-opacity="1"></stop><stop offset="85.55555555555554%" stop-color="#de5c69" stop-opacity="1"></stop></linearGradient></defs><defs><linearGradient id="grad1_5" x1="43.8%" y1="0%" x2="100%" y2="100%"><stop offset="14.444444444444446%" stop-color="#b24d74" stop-opacity="1"></stop><stop offset="85.55555555555554%" stop-color="#7f4571" stop-opacity="1"></stop></linearGradient></defs><defs><linearGradient id="grad1_6" x1="43.8%" y1="0%" x2="100%" y2="100%"><stop offset="14.444444444444446%" stop-color="#4f3b5f" stop-opacity="1"></stop><stop offset="85.55555555555554%" stop-color="#7f4571" stop-opacity="1"></stop></linearGradient></defs><defs><linearGradient id="grad1_7" x1="43.8%" y1="0%" x2="100%" y2="100%"><stop offset="14.444444444444446%" stop-color="#4f3b5f" stop-opacity="1"></stop><stop offset="85.55555555555554%" stop-color="#2b2d42" stop-opacity="1"></stop></linearGradient></defs><defs><linearGradient id="grad2_0" x1="0%" y1="0%" x2="56.3%" y2="100%"><stop offset="14.444444444444446%" stop-color="#ffcc00" stop-opacity="1"></stop><stop offset="85.55555555555554%" stop-color="#ffcc00" stop-opacity="1"></stop></linearGradient></defs><defs><linearGradient id="grad2_1" x1="0%" y1="0%" x2="56.3%" y2="100%"><stop offset="14.444444444444446%" stop-color="#ff9f34" stop-opacity="1"></stop><stop offset="85.55555555555554%" stop-color="#ffcc00" stop-opacity="1"></stop></linearGradient></defs><defs><linearGradient id="grad2_2" x1="0%" y1="0%" x2="56.3%" y2="100%"><stop offset="14.444444444444446%" stop-color="#ff9f34" stop-opacity="1"></stop><stop offset="85.55555555555554%" stop-color="#fc7853" stop-opacity="1"></stop></linearGradient></defs><defs><linearGradient id="grad2_3" x1="0%" y1="0%" x2="56.3%" y2="100%"><stop offset="14.444444444444446%" stop-color="#de5c69" stop-opacity="1"></stop><stop offset="85.55555555555554%" stop-color="#fc7853" stop-opacity="1"></stop></linearGradient></defs><defs><linearGradient id="grad2_4" x1="0%" y1="0%" x2="56.3%" y2="100%"><stop offset="14.444444444444446%" stop-color="#de5c69" stop-opacity="1"></stop><stop offset="85.55555555555554%" stop-color="#b24d74" stop-opacity="1"></stop></linearGradient></defs><defs><linearGradient id="grad2_5" x1="0%" y1="0%" x2="56.3%" y2="100%"><stop offset="14.444444444444446%" stop-color="#7f4571" stop-opacity="1"></stop><stop offset="85.55555555555554%" stop-color="#b24d74" stop-opacity="1"></stop></linearGradient></defs><defs><linearGradient id="grad2_6" x1="0%" y1="0%" x2="56.3%" y2="100%"><stop offset="14.444444444444446%" stop-color="#7f4571" stop-opacity="1"></stop><stop offset="85.55555555555554%" stop-color="#4f3b5f" stop-opacity="1"></stop></linearGradient></defs><defs><linearGradient id="grad2_7" x1="0%" y1="0%" x2="56.3%" y2="100%"><stop offset="14.444444444444446%" stop-color="#2b2d42" stop-opacity="1"></stop><stop offset="85.55555555555554%" stop-color="#4f3b5f" stop-opacity="1"></stop></linearGradient></defs><g transform="translate(1920, 0)"><path d="M0 702C-75.5 697.7 -151.1 693.4 -216.9 667.6C-282.8 641.9 -339 594.7 -400.9 551.7C-462.7 508.8 -530.2 470.3 -567.1 412C-604 353.8 -610.3 275.9 -627.7 204C-645.1 132 -673.5 66 -702 0L0 0Z" fill="#3b3551"></path><path d="M0 614.3C-66.1 610.5 -132.2 606.7 -189.8 584.2C-247.5 561.6 -296.6 520.3 -350.8 482.8C-404.9 445.2 -463.9 411.5 -496.2 360.5C-528.5 309.6 -534 241.4 -549.2 178.5C-564.4 115.5 -589.3 57.8 -614.2 0L0 0Z" fill="#66406a"></path><path d="M0 526.5C-56.6 523.3 -113.3 520.1 -162.7 500.7C-212.1 481.4 -254.3 446 -300.7 413.8C-347 381.6 -397.7 352.7 -425.3 309C-453 265.4 -457.7 206.9 -470.8 153C-483.8 99 -505.2 49.5 -526.5 0L0 0Z" fill="#994974"></path><path d="M0 438.8C-47.2 436.1 -94.4 433.4 -135.6 417.3C-176.8 401.2 -211.9 371.7 -250.5 344.8C-289.2 318 -331.4 293.9 -354.5 257.5C-377.5 221.1 -381.4 172.4 -392.3 127.5C-403.2 82.5 -421 41.3 -438.7 0L0 0Z" fill="#c95470"></path><path d="M0 351C-37.8 348.9 -75.5 346.7 -108.5 333.8C-141.4 320.9 -169.5 297.3 -200.4 275.9C-231.4 254.4 -265.1 235.1 -283.6 206C-302 176.9 -305.2 138 -313.8 102C-322.5 66 -336.8 33 -351 0L0 0Z" fill="#ef695f"></path><path d="M0 263.3C-28.3 261.6 -56.6 260 -81.3 250.4C-106.1 240.7 -127.1 223 -150.3 206.9C-173.5 190.8 -198.8 176.4 -212.7 154.5C-226.5 132.7 -228.9 103.5 -235.4 76.5C-241.9 49.5 -252.6 24.8 -263.2 0L0 0Z" fill="#ff8a44"></path><path d="M0 175.5C-18.9 174.4 -37.8 173.4 -54.2 166.9C-70.7 160.5 -84.8 148.7 -100.2 137.9C-115.7 127.2 -132.6 117.6 -141.8 103C-151 88.5 -152.6 69 -156.9 51C-161.3 33 -168.4 16.5 -175.5 0L0 0Z" fill="#ffb51f"></path><path d="M0 87.8C-9.4 87.2 -18.9 86.7 -27.1 83.5C-35.4 80.2 -42.4 74.3 -50.1 69C-57.8 63.6 -66.3 58.8 -70.9 51.5C-75.5 44.2 -76.3 34.5 -78.5 25.5C-80.6 16.5 -84.2 8.3 -87.7 0L0 0Z" fill="#ffcc00"></path></g><g transform="translate(0, 1080)"><path d="M0 -702C70.8 -689.8 141.7 -677.7 213.5 -657.2C285.4 -636.7 358.3 -607.9 404.4 -556.6C450.5 -505.3 469.9 -431.6 515.3 -374.4C560.8 -317.2 632.2 -276.6 667.6 -216.9C703.1 -157.3 702.5 -78.6 702 0L0 0Z" fill="#3b3551"></path><path d="M0 -614.2C62 -603.6 124 -593 186.8 -575C249.7 -557.1 313.5 -531.9 353.8 -487C394.2 -442.2 411.2 -377.7 450.9 -327.6C490.7 -277.6 553.2 -242 584.2 -189.8C615.2 -137.6 614.7 -68.8 614.3 0L0 0Z" fill="#66406a"></path><path d="M0 -526.5C53.1 -517.4 106.3 -508.3 160.1 -492.9C214 -477.5 268.7 -455.9 303.3 -417.5C337.9 -379 352.4 -323.7 386.5 -280.8C420.6 -237.9 474.1 -207.4 500.7 -162.7C527.3 -118 526.9 -59 526.5 0L0 0Z" fill="#994974"></path><path d="M0 -438.7C44.3 -431.1 88.5 -423.5 133.5 -410.7C178.4 -397.9 223.9 -379.9 252.7 -347.9C281.6 -315.8 293.7 -269.8 322.1 -234C350.5 -198.3 395.1 -172.9 417.3 -135.6C439.4 -98.3 439.1 -49.2 438.8 0L0 0Z" fill="#c95470"></path><path d="M0 -351C35.4 -344.9 70.8 -338.8 106.8 -328.6C142.7 -318.3 179.1 -303.9 202.2 -278.3C225.3 -252.7 235 -215.8 257.7 -187.2C280.4 -158.6 316.1 -138.3 333.8 -108.5C351.5 -78.6 351.3 -39.3 351 0L0 0Z" fill="#ef695f"></path><path d="M0 -263.2C26.6 -258.7 53.1 -254.1 80.1 -246.4C107 -238.8 134.3 -228 151.6 -208.7C168.9 -189.5 176.2 -161.9 193.3 -140.4C210.3 -119 237.1 -103.7 250.4 -81.3C263.7 -59 263.5 -29.5 263.3 0L0 0Z" fill="#ff8a44"></path><path d="M0 -175.5C17.7 -172.5 35.4 -169.4 53.4 -164.3C71.3 -159.2 89.6 -152 101.1 -139.2C112.6 -126.3 117.5 -107.9 128.8 -93.6C140.2 -79.3 158 -69.1 166.9 -54.2C175.8 -39.3 175.6 -19.7 175.5 0L0 0Z" fill="#ffb51f"></path><path d="M0 -87.7C8.9 -86.2 17.7 -84.7 26.7 -82.1C35.7 -79.6 44.8 -76 50.5 -69.6C56.3 -63.2 58.7 -54 64.4 -46.8C70.1 -39.7 79 -34.6 83.5 -27.1C87.9 -19.7 87.8 -9.8 87.8 0L0 0Z" fill="#ffcc00"></path></g></svg>