<svg width="87" height="40" viewBox="0 0 87 40" fill="none" xmlns="http://www.w3.org/2000/svg">
<path d="M54.9765 39.7266C56.5548 39.7266 57.4202 39.1167 57.4202 37.9917C57.4202 37.2294 57.0122 36.6566 56.3529 36.5041C56.8556 36.3186 57.1688 35.8118 57.1688 35.2184C57.1688 34.2129 56.3735 33.6566 54.9518 33.6566C54.3089 33.6566 53.6001 33.7761 53.0314 33.9615V39.4175C53.6084 39.6112 54.3089 39.7266 54.9765 39.7266ZM53.9957 36.1909V34.5673C54.2759 34.4684 54.7086 34.4024 55.063 34.4024C55.8048 34.4024 56.1963 34.7197 56.1963 35.3214C56.1963 35.8695 55.846 36.1909 55.2279 36.1909H53.9957ZM55.063 38.9807C54.6839 38.9807 54.2965 38.923 53.9957 38.8159V36.8997H55.3474C56.0479 36.8997 56.4435 37.2664 56.4435 37.9134C56.4435 38.6263 55.9861 38.9807 55.063 38.9807Z" fill="white"/>
<path d="M60.2202 39.7266C60.8713 39.7266 61.5636 39.6071 62.054 39.3722V35.1854H61.1309V38.82C60.8796 38.9148 60.5252 38.9807 60.2202 38.9807C59.4991 38.9807 59.2559 38.6057 59.2559 38.0329V35.1854H58.3329V38.0329C58.3329 39.1332 59.0046 39.7266 60.2202 39.7266Z" fill="white"/>
<path d="M64.3925 39.7266C65.4392 39.7266 66.078 39.2568 66.078 38.4739C66.078 37.8186 65.67 37.456 64.9241 37.1263L64.5574 36.9656C64.1659 36.7967 63.9516 36.6318 63.9516 36.298C63.9516 35.956 64.1947 35.7747 64.714 35.7747C64.9818 35.7747 65.3115 35.82 65.6659 35.9313L65.7854 35.3667C65.4392 35.2019 64.9447 35.1071 64.5574 35.1071C63.5972 35.1071 63.045 35.5357 63.045 36.2733C63.045 36.875 63.3912 37.2747 64.0052 37.5467L64.4461 37.7486C64.9282 37.9464 65.1714 38.1277 65.1714 38.4697C65.1714 38.853 64.817 39.059 64.2194 39.059C63.9392 39.059 63.5395 39.0096 63.1975 38.8818L63.0821 39.4382C63.5148 39.636 63.9763 39.7266 64.3925 39.7266Z" fill="white"/>
<path d="M67.5964 34.5178C67.9137 34.5178 68.1692 34.2953 68.1692 33.9491C68.1692 33.6195 67.922 33.3928 67.5964 33.3928C67.275 33.3928 67.0236 33.6195 67.0236 33.9491C67.0236 34.2871 67.2791 34.5178 67.5964 34.5178ZM67.1308 39.6483H68.0538V35.1854H67.1308V39.6483Z" fill="white"/>
<path d="M69.2344 39.6483H70.1575V36.0178C70.4047 35.9148 70.7468 35.853 71.0723 35.853C71.7893 35.853 72.0325 36.1703 72.0325 36.7266V39.6483H72.9555V36.7678C72.9555 35.7005 72.2797 35.1071 71.0723 35.1071C70.4294 35.1071 69.7536 35.2719 69.2344 35.5769V39.6483Z" fill="white"/>
<path d="M77.9932 37.2046C77.9932 35.8365 77.2432 35.1071 76.0317 35.1071C74.7831 35.1071 73.9877 35.9478 73.9877 37.2046V37.6291C73.9877 38.9272 74.8779 39.7266 76.1965 39.7266C76.6787 39.7266 77.2268 39.6112 77.6182 39.4423L77.4987 38.8571C77.132 38.9684 76.7446 39.0219 76.3614 39.0219C75.463 39.0219 74.9355 38.5851 74.9273 37.7074H77.9562C77.9768 37.5384 77.9932 37.3777 77.9932 37.2046ZM77.066 37.081H74.9273V36.9903C74.9273 36.2403 75.3476 35.8159 76.0317 35.8159C76.7034 35.8159 77.066 36.228 77.066 36.9903V37.081Z" fill="white"/>
<path d="M80.2493 39.7266C81.296 39.7266 81.9348 39.2568 81.9348 38.4739C81.9348 37.8186 81.5268 37.456 80.7809 37.1263L80.4142 36.9656C80.0227 36.7967 79.8084 36.6318 79.8084 36.298C79.8084 35.956 80.0515 35.7747 80.5708 35.7747C80.8386 35.7747 81.1683 35.82 81.5227 35.9313L81.6422 35.3667C81.296 35.2019 80.8015 35.1071 80.4142 35.1071C79.454 35.1071 78.9018 35.5357 78.9018 36.2733C78.9018 36.875 79.248 37.2747 79.862 37.5467L80.3029 37.7486C80.785 37.9464 81.0282 38.1277 81.0282 38.4697C81.0282 38.853 80.6738 39.059 80.0763 39.059C79.796 39.059 79.3963 39.0096 79.0543 38.8818L78.9389 39.4382C79.3716 39.636 79.8331 39.7266 80.2493 39.7266Z" fill="white"/>
<path d="M84.1497 39.7266C85.1964 39.7266 85.8351 39.2568 85.8351 38.4739C85.8351 37.8186 85.4271 37.456 84.6813 37.1263L84.3145 36.9656C83.923 36.7967 83.7087 36.6318 83.7087 36.298C83.7087 35.956 83.9519 35.7747 84.4711 35.7747C84.7389 35.7747 85.0686 35.82 85.423 35.9313L85.5425 35.3667C85.1964 35.2019 84.7019 35.1071 84.3145 35.1071C83.3543 35.1071 82.8021 35.5357 82.8021 36.2733C82.8021 36.875 83.1483 37.2747 83.7623 37.5467L84.2032 37.7486C84.6854 37.9464 84.9285 38.1277 84.9285 38.4697C84.9285 38.853 84.5741 39.059 83.9766 39.059C83.6964 39.059 83.2966 39.0096 82.9546 38.8818L82.8392 39.4382C83.2719 39.636 83.7335 39.7266 84.1497 39.7266Z" fill="white"/>
<path d="M9.17647 40C10.414 40 11.4172 38.9965 11.4172 37.7586C11.4172 36.5208 10.414 35.5173 9.17647 35.5173C7.93894 35.5173 6.93573 36.5208 6.93573 37.7586C6.93573 38.9965 7.93894 40 9.17647 40Z" fill="#0000FA"/>
<path d="M9.27128 39.8794C10.5211 39.8794 11.5342 38.866 11.5342 37.6158C11.5342 36.3656 10.5211 35.3522 9.27128 35.3522C8.02147 35.3522 7.0083 36.3656 7.0083 37.6158C7.0083 38.866 8.02147 39.8794 9.27128 39.8794Z" fill="#0101FA"/>
<path d="M9.36608 39.7588C10.6282 39.7588 11.6513 38.7354 11.6513 37.4729C11.6513 36.2105 10.6282 35.1871 9.36608 35.1871C8.104 35.1871 7.08087 36.2105 7.08087 37.4729C7.08087 38.7354 8.104 39.7588 9.36608 39.7588Z" fill="#0102FA"/>
<path d="M9.46083 39.6382C10.7352 39.6382 11.7683 38.6049 11.7683 37.3301C11.7683 36.0554 10.7352 35.022 9.46083 35.022C8.18646 35.022 7.15338 36.0554 7.15338 37.3301C7.15338 38.6049 8.18646 39.6382 9.46083 39.6382Z" fill="#0203F9"/>
<path d="M9.55564 39.5176C10.8423 39.5176 11.8853 38.4742 11.8853 37.1872C11.8853 35.9002 10.8423 34.8569 9.55564 34.8569C8.26899 34.8569 7.22595 35.9002 7.22595 37.1872C7.22595 38.4742 8.26899 39.5176 9.55564 39.5176Z" fill="#0204F9"/>
<path d="M9.65045 39.3976C10.9494 39.3976 12.0024 38.3443 12.0024 37.045C12.0024 35.7457 10.9494 34.6924 9.65045 34.6924C8.35152 34.6924 7.29852 35.7457 7.29852 37.045C7.29852 38.3443 8.35152 39.3976 9.65045 39.3976Z" fill="#0305F9"/>
<path d="M9.74471 39.2771C11.0559 39.2771 12.1189 38.2138 12.1189 36.9022C12.1189 35.5907 11.0559 34.5274 9.74471 34.5274C8.43349 34.5274 7.37054 35.5907 7.37054 36.9022C7.37054 38.2138 8.43349 39.2771 9.74471 39.2771Z" fill="#0406F9"/>
<path d="M9.83952 39.1565C11.163 39.1565 12.2359 38.0833 12.2359 36.7594C12.2359 35.4355 11.163 34.3623 9.83952 34.3623C8.51602 34.3623 7.44312 35.4355 7.44312 36.7594C7.44312 38.0833 8.51602 39.1565 9.83952 39.1565Z" fill="#0407F8"/>
<path d="M9.93432 39.0359C11.2701 39.0359 12.353 37.9527 12.353 36.6165C12.353 35.2804 11.2701 34.1972 9.93432 34.1972C8.59855 34.1972 7.51569 35.2804 7.51569 36.6165C7.51569 37.9527 8.59855 39.0359 9.93432 39.0359Z" fill="#0508F8"/>
<path d="M10.0291 38.9153C11.3771 38.9153 12.4699 37.8222 12.4699 36.4737C12.4699 35.1253 11.3771 34.0322 10.0291 34.0322C8.68101 34.0322 7.5882 35.1253 7.5882 36.4737C7.5882 37.8222 8.68101 38.9153 10.0291 38.9153Z" fill="#0509F8"/>
<path d="M10.1239 38.7947C11.4842 38.7947 12.587 37.6916 12.587 36.3309C12.587 34.9702 11.4842 33.8671 10.1239 33.8671C8.76354 33.8671 7.66077 34.9702 7.66077 36.3309C7.66077 37.6916 8.76354 38.7947 10.1239 38.7947Z" fill="#060AF8"/>
<path d="M10.2187 38.6741C11.5913 38.6741 12.704 37.561 12.704 36.188C12.704 34.815 11.5913 33.702 10.2187 33.702C8.84607 33.702 7.73334 34.815 7.73334 36.188C7.73334 37.561 8.84607 38.6741 10.2187 38.6741Z" fill="#070BF7"/>
<path d="M10.3135 38.5535C11.6981 38.5535 12.8205 37.4308 12.8205 36.0458C12.8205 34.6608 11.6981 33.5381 10.3135 33.5381C8.92894 33.5381 7.80652 34.6608 7.80652 36.0458C7.80652 37.4308 8.92894 38.5535 10.3135 38.5535Z" fill="#070CF7"/>
<path d="M10.4083 38.433C11.8052 38.433 12.9376 37.3003 12.9376 35.903C12.9376 34.5058 11.8052 33.373 10.4083 33.373C9.01147 33.373 7.87909 34.5058 7.87909 35.903C7.87909 37.3003 9.01147 38.433 10.4083 38.433Z" fill="#080DF7"/>
<path d="M10.5031 38.3124C11.9123 38.3124 13.0546 37.1697 13.0546 35.7602C13.0546 34.3506 11.9123 33.2079 10.5031 33.2079C9.094 33.2079 7.95166 34.3506 7.95166 35.7602C7.95166 37.1697 9.094 38.3124 10.5031 38.3124Z" fill="#080EF7"/>
<path d="M10.5979 38.1917C12.0194 38.1917 13.1717 37.0391 13.1717 35.6173C13.1717 34.1955 12.0194 33.0428 10.5979 33.0428C9.17652 33.0428 8.02423 34.1955 8.02423 35.6173C8.02423 37.0391 9.17652 38.1917 10.5979 38.1917Z" fill="#090FF6"/>
<path d="M10.6927 38.0712C12.1264 38.0712 13.2886 36.9086 13.2886 35.4745C13.2886 34.0404 12.1264 32.8778 10.6927 32.8778C9.25899 32.8778 8.09674 34.0404 8.09674 35.4745C8.09674 36.9086 9.25899 38.0712 10.6927 38.0712Z" fill="#0A10F6"/>
<path d="M10.7875 37.9506C12.2335 37.9506 13.4057 36.778 13.4057 35.3316C13.4057 33.8852 12.2335 32.7127 10.7875 32.7127C9.34152 32.7127 8.16931 33.8852 8.16931 35.3316C8.16931 36.778 9.34152 37.9506 10.7875 37.9506Z" fill="#0A11F6"/>
<path d="M10.8823 37.83C12.3406 37.83 13.5227 36.6475 13.5227 35.1889C13.5227 33.7302 12.3406 32.5477 10.8823 32.5477C9.42404 32.5477 8.24188 33.7302 8.24188 35.1889C8.24188 36.6475 9.42404 37.83 10.8823 37.83Z" fill="#0B12F6"/>
<path d="M10.9771 37.71C12.4477 37.71 13.6398 36.5176 13.6398 35.0466C13.6398 33.5756 12.4477 32.3832 10.9771 32.3832C9.50657 32.3832 8.31445 33.5756 8.31445 35.0466C8.31445 36.5176 9.50657 37.71 10.9771 37.71Z" fill="#0B13F5"/>
<path d="M11.0713 37.5894C12.5541 37.5894 13.7562 36.387 13.7562 34.9037C13.7562 33.4205 12.5541 32.2181 11.0713 32.2181C9.58849 32.2181 8.38641 33.4205 8.38641 34.9037C8.38641 36.387 9.58849 37.5894 11.0713 37.5894Z" fill="#0C14F5"/>
<path d="M11.1661 37.4688C12.6612 37.4688 13.8733 36.2564 13.8733 34.7609C13.8733 33.2654 12.6612 32.053 11.1661 32.053C9.67101 32.053 8.45898 33.2654 8.45898 34.7609C8.45898 36.2564 9.67101 37.4688 11.1661 37.4688Z" fill="#0C15F5"/>
<path d="M11.2609 37.3483C12.7683 37.3483 13.9903 36.1259 13.9903 34.6181C13.9903 33.1103 12.7683 31.8879 11.2609 31.8879C9.75354 31.8879 8.53156 33.1103 8.53156 34.6181C8.53156 36.1259 9.75354 37.3483 11.2609 37.3483Z" fill="#0D16F5"/>
<path d="M11.3557 37.2277C12.8754 37.2277 14.1074 35.9954 14.1074 34.4753C14.1074 32.9552 12.8754 31.7229 11.3557 31.7229C9.83607 31.7229 8.60413 32.9552 8.60413 34.4753C8.60413 35.9954 9.83607 37.2277 11.3557 37.2277Z" fill="#0E17F4"/>
<path d="M11.4506 37.1065C12.9822 37.1065 14.2238 35.8645 14.2238 34.3325C14.2238 32.8004 12.9822 31.5584 11.4506 31.5584C9.91894 31.5584 8.67731 32.8004 8.67731 34.3325C8.67731 35.8645 9.91894 37.1065 11.4506 37.1065Z" fill="#0E18F4"/>
<path d="M11.5453 36.9865C13.0892 36.9865 14.3408 35.7346 14.3408 34.1902C14.3408 32.6459 13.0892 31.3939 11.5453 31.3939C10.0014 31.3939 8.74982 32.6459 8.74982 34.1902C8.74982 35.7346 10.0014 36.9865 11.5453 36.9865Z" fill="#0F19F4"/>
<path d="M11.6401 36.8659C13.1963 36.8659 14.4579 35.604 14.4579 34.0474C14.4579 32.4907 13.1963 31.2288 11.6401 31.2288C10.0839 31.2288 8.82239 32.4907 8.82239 34.0474C8.82239 35.604 10.0839 36.8659 11.6401 36.8659Z" fill="#0F1AF4"/>
<path d="M11.7349 36.7453C13.3034 36.7453 14.5749 35.4734 14.5749 33.9045C14.5749 32.3356 13.3034 31.0637 11.7349 31.0637C10.1665 31.0637 8.89496 32.3356 8.89496 33.9045C8.89496 35.4734 10.1665 36.7453 11.7349 36.7453Z" fill="#101BF3"/>
<path d="M11.8298 36.6248C13.4105 36.6248 14.692 35.3429 14.692 33.7617C14.692 32.1805 13.4105 30.8987 11.8298 30.8987C10.249 30.8987 8.96753 32.1805 8.96753 33.7617C8.96753 35.3429 10.249 36.6248 11.8298 36.6248Z" fill="#111CF3"/>
<path d="M11.9246 36.5041C13.5176 36.5041 14.809 35.2124 14.809 33.6189C14.809 32.0254 13.5176 30.7336 11.9246 30.7336C10.3315 30.7336 9.0401 32.0254 9.0401 33.6189C9.0401 35.2124 10.3315 36.5041 11.9246 36.5041Z" fill="#111DF3"/>
<path d="M12.0194 36.3836C13.6247 36.3836 14.9261 35.0819 14.9261 33.4761C14.9261 31.8703 13.6247 30.5685 12.0194 30.5685C10.414 30.5685 9.11267 31.8703 9.11267 33.4761C9.11267 35.0819 10.414 36.3836 12.0194 36.3836Z" fill="#121EF3"/>
<path d="M12.1142 36.263C13.7318 36.263 15.0431 34.9513 15.0431 33.3332C15.0431 31.7151 13.7318 30.4034 12.1142 30.4034C10.4966 30.4034 9.18524 31.7151 9.18524 33.3332C9.18524 34.9513 10.4966 36.263 12.1142 36.263Z" fill="#121FF2"/>
<path d="M12.209 36.143C13.8389 36.143 15.1602 34.8213 15.1602 33.191C15.1602 31.5606 13.8389 30.239 12.209 30.239C10.5791 30.239 9.25781 31.5606 9.25781 33.191C9.25781 34.8213 10.5791 36.143 12.209 36.143Z" fill="#1320F2"/>
<path d="M12.3038 36.0224C13.946 36.0224 15.2772 34.6908 15.2772 33.0482C15.2772 31.4055 13.946 30.0739 12.3038 30.0739C10.6616 30.0739 9.33038 31.4055 9.33038 33.0482C9.33038 34.6908 10.6616 36.0224 12.3038 36.0224Z" fill="#1421F2"/>
<path d="M12.3986 35.9018C14.0531 35.9018 15.3942 34.5602 15.3942 32.9053C15.3942 31.2504 14.0531 29.9088 12.3986 29.9088C10.7442 29.9088 9.40295 31.2504 9.40295 32.9053C9.40295 34.5602 10.7442 35.9018 12.3986 35.9018Z" fill="#1422F2"/>
<path d="M12.4928 35.7813C14.1595 35.7813 15.5107 34.4297 15.5107 32.7625C15.5107 31.0953 14.1595 29.7438 12.4928 29.7438C10.8261 29.7438 9.47491 31.0953 9.47491 32.7625C9.47491 34.4297 10.8261 35.7813 12.4928 35.7813Z" fill="#1523F1"/>
<path d="M12.5876 35.6601C14.2663 35.6601 15.6272 34.2989 15.6272 32.6197C15.6272 30.9405 14.2663 29.5793 12.5876 29.5793C10.9089 29.5793 9.5481 30.9405 9.5481 32.6197C9.5481 34.2989 10.9089 35.6601 12.5876 35.6601Z" fill="#1524F1"/>
<path d="M12.6824 35.5395C14.3734 35.5395 15.7442 34.1683 15.7442 32.4768C15.7442 30.7854 14.3734 29.4142 12.6824 29.4142C10.9915 29.4142 9.62067 30.7854 9.62067 32.4768C9.62067 34.1683 10.9915 35.5395 12.6824 35.5395Z" fill="#1625F1"/>
<path d="M12.7772 35.4189C14.4804 35.4189 15.8612 34.0377 15.8612 32.334C15.8612 30.6302 14.4804 29.2491 12.7772 29.2491C11.0739 29.2491 9.69318 30.6302 9.69318 32.334C9.69318 34.0377 11.0739 35.4189 12.7772 35.4189Z" fill="#1726F1"/>
<path d="M12.872 35.2989C14.5875 35.2989 15.9782 33.9078 15.9782 32.1918C15.9782 30.4758 14.5875 29.0847 12.872 29.0847C11.1565 29.0847 9.76575 30.4758 9.76575 32.1918C9.76575 33.9078 11.1565 35.2989 12.872 35.2989Z" fill="#1727F0"/>
<path d="M12.9668 35.1783C14.6946 35.1783 16.0953 33.7772 16.0953 32.0489C16.0953 30.3206 14.6946 28.9196 12.9668 28.9196C11.239 28.9196 9.83832 30.3206 9.83832 32.0489C9.83832 33.7772 11.239 35.1783 12.9668 35.1783Z" fill="#1828F0"/>
<path d="M13.0616 35.0577C14.8017 35.0577 16.2123 33.6467 16.2123 31.9061C16.2123 30.1655 14.8017 28.7545 13.0616 28.7545C11.3215 28.7545 9.91089 30.1655 9.91089 31.9061C9.91089 33.6467 11.3215 35.0577 13.0616 35.0577Z" fill="#1829F0"/>
<path d="M13.1564 34.9372C14.9088 34.9372 16.3294 33.5162 16.3294 31.7633C16.3294 30.0104 14.9088 28.5894 13.1564 28.5894C11.404 28.5894 9.98346 30.0104 9.98346 31.7633C9.98346 33.5162 11.404 34.9372 13.1564 34.9372Z" fill="#192AF0"/>
<path d="M13.2512 34.8166C15.0159 34.8166 16.4464 33.3857 16.4464 31.6205C16.4464 29.8553 15.0159 28.4244 13.2512 28.4244C11.4866 28.4244 10.056 29.8553 10.056 31.6205C10.056 33.3857 11.4866 34.8166 13.2512 34.8166Z" fill="#1A2BEF"/>
<path d="M13.346 34.6959C15.123 34.6959 16.5635 33.255 16.5635 31.4776C16.5635 29.7001 15.123 28.2592 13.346 28.2592C11.5691 28.2592 10.1286 29.7001 10.1286 31.4776C10.1286 33.255 11.5691 34.6959 13.346 34.6959Z" fill="#1A2CEF"/>
<path d="M13.4408 34.5754C15.2301 34.5754 16.6805 33.1245 16.6805 31.3348C16.6805 29.545 15.2301 28.0942 13.4408 28.0942C11.6516 28.0942 10.2012 29.545 10.2012 31.3348C10.2012 33.1245 11.6516 34.5754 13.4408 34.5754Z" fill="#1B2DEF"/>
<path d="M13.5356 34.4554C15.3371 34.4554 16.7975 32.9945 16.7975 31.1925C16.7975 29.3905 15.3371 27.9297 13.5356 27.9297C11.7341 27.9297 10.2737 29.3905 10.2737 31.1925C10.2737 32.9945 11.7341 34.4554 13.5356 34.4554Z" fill="#1B2EEF"/>
<path d="M13.6304 34.3348C15.4442 34.3348 16.9146 32.864 16.9146 31.0497C16.9146 29.2354 15.4442 27.7646 13.6304 27.7646C11.8166 27.7646 10.3463 29.2354 10.3463 31.0497C10.3463 32.864 11.8166 34.3348 13.6304 34.3348Z" fill="#1C2FEE"/>
<path d="M13.7252 34.2136C15.551 34.2136 17.031 32.7331 17.031 30.9068C17.031 29.0806 15.551 27.6001 13.7252 27.6001C11.8995 27.6001 10.4194 29.0806 10.4194 30.9068C10.4194 32.7331 11.8995 34.2136 13.7252 34.2136Z" fill="#1D30EE"/>
<path d="M13.8194 34.093C15.6575 34.093 17.1475 32.6026 17.1475 30.7641C17.1475 28.9255 15.6575 27.4351 13.8194 27.4351C11.9814 27.4351 10.4914 28.9255 10.4914 30.7641C10.4914 32.6026 11.9814 34.093 13.8194 34.093Z" fill="#1D31EE"/>
<path d="M13.9142 33.9724C15.7646 33.9724 17.2645 32.472 17.2645 30.6212C17.2645 28.7704 15.7646 27.27 13.9142 27.27C12.0639 27.27 10.564 28.7704 10.564 30.6212C10.564 32.472 12.0639 33.9724 13.9142 33.9724Z" fill="#1E32EE"/>
<path d="M14.0091 33.8519C15.8716 33.8519 17.3816 32.3415 17.3816 30.4784C17.3816 28.6153 15.8716 27.1049 14.0091 27.1049C12.1465 27.1049 10.6365 28.6153 10.6365 30.4784C10.6365 32.3415 12.1465 33.8519 14.0091 33.8519Z" fill="#1E32ED"/>
<path d="M14.1039 33.7313C15.9787 33.7313 17.4986 32.2109 17.4986 30.3355C17.4986 28.4601 15.9787 26.9398 14.1039 26.9398C12.229 26.9398 10.7091 28.4601 10.7091 30.3355C10.7091 32.2109 12.229 33.7313 14.1039 33.7313Z" fill="#1F33ED"/>
<path d="M14.1987 33.6113C16.0858 33.6113 17.6157 32.081 17.6157 30.1933C17.6157 28.3056 16.0858 26.7753 14.1987 26.7753C12.3115 26.7753 10.7817 28.3056 10.7817 30.1933C10.7817 32.081 12.3115 33.6113 14.1987 33.6113Z" fill="#1F34ED"/>
<path d="M14.2935 33.4907C16.1929 33.4907 17.7327 31.9505 17.7327 30.0505C17.7327 28.1505 16.1929 26.6103 14.2935 26.6103C12.394 26.6103 10.8542 28.1505 10.8542 30.0505C10.8542 31.9505 12.394 33.4907 14.2935 33.4907Z" fill="#2035ED"/>
<path d="M14.3883 33.3701C16.3 33.3701 17.8498 31.8199 17.8498 29.9076C17.8498 27.9954 16.3 26.4452 14.3883 26.4452C12.4766 26.4452 10.9268 27.9954 10.9268 29.9076C10.9268 31.8199 12.4766 33.3701 14.3883 33.3701Z" fill="#2136EC"/>
<path d="M14.4831 33.2495C16.4071 33.2495 17.9668 31.6893 17.9668 29.7648C17.9668 27.8402 16.4071 26.2801 14.4831 26.2801C12.5591 26.2801 10.9994 27.8402 10.9994 29.7648C10.9994 31.6893 12.5591 33.2495 14.4831 33.2495Z" fill="#2137EC"/>
<path d="M14.5779 33.1289C16.5142 33.1289 18.0838 31.5588 18.0838 29.622C18.0838 27.6852 16.5142 26.1151 14.5779 26.1151C12.6416 26.1151 11.072 27.6852 11.072 29.622C11.072 31.5588 12.6416 33.1289 14.5779 33.1289Z" fill="#2238EC"/>
<path d="M14.6727 33.0083C16.6212 33.0083 18.2008 31.4283 18.2008 29.4791C18.2008 27.53 16.6212 25.95 14.6727 25.95C12.7241 25.95 11.1445 27.53 11.1445 29.4791C11.1445 31.4283 12.7241 33.0083 14.6727 33.0083Z" fill="#2239EC"/>
<path d="M14.7675 32.8878C16.7283 32.8878 18.3179 31.2977 18.3179 29.3363C18.3179 27.3749 16.7283 25.7849 14.7675 25.7849C12.8066 25.7849 11.217 27.3749 11.217 29.3363C11.217 31.2977 12.8066 32.8878 14.7675 32.8878Z" fill="#233AEB"/>
<path d="M14.8623 32.7672C16.8351 32.7672 18.4344 31.1674 18.4344 29.1941C18.4344 27.2207 16.8351 25.621 14.8623 25.621C12.8895 25.621 11.2902 27.2207 11.2902 29.1941C11.2902 31.1674 12.8895 32.7672 14.8623 32.7672Z" fill="#243BEB"/>
<path d="M14.9571 32.6466C16.9422 32.6466 18.5514 31.0369 18.5514 29.0513C18.5514 27.0656 16.9422 25.4559 14.9571 25.4559C12.972 25.4559 11.3628 27.0656 11.3628 29.0513C11.3628 31.0369 12.972 32.6466 14.9571 32.6466Z" fill="#243CEB"/>
<path d="M15.0519 32.526C17.0493 32.526 18.6685 30.9063 18.6685 28.9084C18.6685 26.9105 17.0493 25.2908 15.0519 25.2908C13.0545 25.2908 11.4354 26.9105 11.4354 28.9084C11.4354 30.9063 13.0545 32.526 15.0519 32.526Z" fill="#253DEB"/>
<path d="M15.1467 32.4054C17.1563 32.4054 18.7854 30.7758 18.7854 28.7656C18.7854 26.7553 17.1563 25.1257 15.1467 25.1257C13.137 25.1257 11.5079 26.7553 11.5079 28.7656C11.5079 30.7758 13.137 32.4054 15.1467 32.4054Z" fill="#253EEA"/>
<path d="M15.2409 32.2848C17.2628 32.2848 18.9019 30.6453 18.9019 28.6228C18.9019 26.6003 17.2628 24.9607 15.2409 24.9607C13.219 24.9607 11.5799 26.6003 11.5799 28.6228C11.5799 30.6453 13.219 32.2848 15.2409 32.2848Z" fill="#263FEA"/>
<path d="M15.3357 32.1643C17.3699 32.1643 19.019 30.5148 19.019 28.48C19.019 26.4452 17.3699 24.7957 15.3357 24.7957C13.3015 24.7957 11.6525 26.4452 11.6525 28.48C11.6525 30.5148 13.3015 32.1643 15.3357 32.1643Z" fill="#2740EA"/>
<path d="M15.4305 32.0437C17.477 32.0437 19.136 30.3842 19.136 28.3371C19.136 26.29 17.477 24.6306 15.4305 24.6306C13.384 24.6306 11.725 26.29 11.725 28.3371C11.725 30.3842 13.384 32.0437 15.4305 32.0437Z" fill="#2741EA"/>
<path d="M15.5253 31.9237C17.584 31.9237 19.253 30.2542 19.253 28.1949C19.253 26.1355 17.584 24.4661 15.5253 24.4661C13.4665 24.4661 11.7975 26.1355 11.7975 28.1949C11.7975 30.2542 13.4665 31.9237 15.5253 31.9237Z" fill="#2842E9"/>
<path d="M15.6201 31.8031C17.6911 31.8031 19.3701 30.1237 19.3701 28.0521C19.3701 25.9804 17.6911 24.301 15.6201 24.301C13.549 24.301 11.8701 25.9804 11.8701 28.0521C11.8701 30.1237 13.549 31.8031 15.6201 31.8031Z" fill="#2843E9"/>
<path d="M15.7149 31.6825C17.7982 31.6825 19.4871 29.9931 19.4871 27.9092C19.4871 25.8253 17.7982 24.1359 15.7149 24.1359C13.6316 24.1359 11.9427 25.8253 11.9427 27.9092C11.9427 29.9931 13.6316 31.6825 15.7149 31.6825Z" fill="#2944E9"/>
<path d="M15.8097 31.5619C17.9053 31.5619 19.6042 29.8626 19.6042 27.7664C19.6042 25.6701 17.9053 23.9708 15.8097 23.9708C13.7141 23.9708 12.0153 25.6701 12.0153 27.7664C12.0153 29.8626 13.7141 31.5619 15.8097 31.5619Z" fill="#2A45E9"/>
<path d="M15.9045 31.4413C18.0124 31.4413 19.7212 29.7321 19.7212 27.6236C19.7212 25.5151 18.0124 23.8058 15.9045 23.8058C13.7966 23.8058 12.0878 25.5151 12.0878 27.6236C12.0878 29.7321 13.7966 31.4413 15.9045 31.4413Z" fill="#2A46E8"/>
<path d="M15.9993 31.3202C18.1192 31.3202 19.8377 29.6012 19.8377 27.4807C19.8377 25.3603 18.1192 23.6413 15.9993 23.6413C13.8795 23.6413 12.161 25.3603 12.161 27.4807C12.161 29.6012 13.8795 31.3202 15.9993 31.3202Z" fill="#2B47E8"/>
<path d="M16.0941 31.1995C18.2262 31.1995 19.9547 29.4706 19.9547 27.3379C19.9547 25.2051 18.2262 23.4762 16.0941 23.4762C13.962 23.4762 12.2335 25.2051 12.2335 27.3379C12.2335 29.4706 13.962 31.1995 16.0941 31.1995Z" fill="#2B48E8"/>
<path d="M16.1889 31.0795C18.3333 31.0795 20.0717 29.3407 20.0717 27.1956C20.0717 25.0506 18.3333 23.3117 16.1889 23.3117C14.0445 23.3117 12.3061 25.0506 12.3061 27.1956C12.3061 29.3407 14.0445 31.0795 16.1889 31.0795Z" fill="#2C49E8"/>
<path d="M16.2837 30.959C18.4404 30.959 20.1888 29.2101 20.1888 27.0528C20.1888 24.8955 18.4404 23.1467 16.2837 23.1467C14.127 23.1467 12.3787 24.8955 12.3787 27.0528C12.3787 29.2101 14.127 30.959 16.2837 30.959Z" fill="#2D4AE7"/>
<path d="M16.3785 30.8384C18.5475 30.8384 20.3058 29.0796 20.3058 26.91C20.3058 24.7404 18.5475 22.9816 16.3785 22.9816C14.2095 22.9816 12.4512 24.7404 12.4512 26.91C12.4512 29.0796 14.2095 30.8384 16.3785 30.8384Z" fill="#2D4BE7"/>
<path d="M16.4733 30.7178C18.6546 30.7178 20.4229 28.949 20.4229 26.7671C20.4229 24.5852 18.6546 22.8165 16.4733 22.8165C14.2921 22.8165 12.5238 24.5852 12.5238 26.7671C12.5238 28.949 14.2921 30.7178 16.4733 30.7178Z" fill="#2E4CE7"/>
<path d="M16.5681 30.5972C18.7617 30.5972 20.5399 28.8185 20.5399 26.6243C20.5399 24.4302 18.7617 22.6514 16.5681 22.6514C14.3746 22.6514 12.5964 24.4302 12.5964 26.6243C12.5964 28.8185 14.3746 30.5972 16.5681 30.5972Z" fill="#2E4DE7"/>
<path d="M16.6623 30.4766C18.8682 30.4766 20.6563 28.6879 20.6563 26.4815C20.6563 24.275 18.8682 22.4863 16.6623 22.4863C14.4565 22.4863 12.6683 24.275 12.6683 26.4815C12.6683 28.6879 14.4565 30.4766 16.6623 30.4766Z" fill="#2F4EE6"/>
<path d="M16.7571 30.3561C18.9752 30.3561 20.7734 28.5574 20.7734 26.3387C20.7734 24.1199 18.9752 22.3213 16.7571 22.3213C14.539 22.3213 12.7409 24.1199 12.7409 26.3387C12.7409 28.5574 14.539 30.3561 16.7571 30.3561Z" fill="#304FE6"/>
<path d="M16.852 30.2361C19.0823 30.2361 20.8904 28.4275 20.8904 26.1964C20.8904 23.9654 19.0823 22.1568 16.852 22.1568C14.6216 22.1568 12.8135 23.9654 12.8135 26.1964C12.8135 28.4275 14.6216 30.2361 16.852 30.2361Z" fill="#3050E6"/>
<path d="M16.9468 30.1154C19.1894 30.1154 21.0075 28.2969 21.0075 26.0536C21.0075 23.8103 19.1894 21.9917 16.9468 21.9917C14.7041 21.9917 12.886 23.8103 12.886 26.0536C12.886 28.2969 14.7041 30.1154 16.9468 30.1154Z" fill="#3151E6"/>
<path d="M17.0416 29.9949C19.2965 29.9949 21.1245 28.1664 21.1245 25.9108C21.1245 23.6552 19.2965 21.8267 17.0416 21.8267C14.7866 21.8267 12.9586 23.6552 12.9586 25.9108C12.9586 28.1664 14.7866 29.9949 17.0416 29.9949Z" fill="#3152E5"/>
<path d="M17.1363 29.8737C19.4033 29.8737 21.2409 28.0355 21.2409 25.7679C21.2409 23.5004 19.4033 21.6622 17.1363 21.6622C14.8694 21.6622 13.0317 23.5004 13.0317 25.7679C13.0317 28.0355 14.8694 29.8737 17.1363 29.8737Z" fill="#3253E5"/>
<path d="M17.2311 29.7531C19.5103 29.7531 21.358 27.9049 21.358 25.6251C21.358 23.3452 19.5103 21.4971 17.2311 21.4971C14.952 21.4971 13.1043 23.3452 13.1043 25.6251C13.1043 27.9049 14.952 29.7531 17.2311 29.7531Z" fill="#3254E5"/>
<path d="M17.326 29.6326C19.6174 29.6326 21.475 27.7744 21.475 25.4823C21.475 23.1902 19.6174 21.332 17.326 21.332C15.0345 21.332 13.1769 23.1902 13.1769 25.4823C13.1769 27.7744 15.0345 29.6326 17.326 29.6326Z" fill="#3355E5"/>
<path d="M17.4208 29.5126C19.7245 29.5126 21.5921 27.6445 21.5921 25.3401C21.5921 23.0356 19.7245 21.1675 17.4208 21.1675C15.117 21.1675 13.2495 23.0356 13.2495 25.3401C13.2495 27.6445 15.117 29.5126 17.4208 29.5126Z" fill="#3456E4"/>
<path d="M17.5156 29.392C19.8316 29.392 21.7091 27.5139 21.7091 25.1973C21.7091 22.8806 19.8316 21.0025 17.5156 21.0025C15.1995 21.0025 13.322 22.8806 13.322 25.1973C13.322 27.5139 15.1995 29.392 17.5156 29.392Z" fill="#3457E4"/>
<path d="M17.6104 29.2713C19.9387 29.2713 21.8262 27.3833 21.8262 25.0543C21.8262 22.7254 19.9387 20.8373 17.6104 20.8373C15.2821 20.8373 13.3946 22.7254 13.3946 25.0543C13.3946 27.3833 15.2821 29.2713 17.6104 29.2713Z" fill="#3558E4"/>
<path d="M17.7052 29.1508C20.0458 29.1508 21.9432 27.2528 21.9432 24.9115C21.9432 22.5703 20.0458 20.6723 17.7052 20.6723C15.3646 20.6723 13.4672 22.5703 13.4672 24.9115C13.4672 27.2528 15.3646 29.1508 17.7052 29.1508Z" fill="#3559E4"/>
<path d="M17.8 29.0302C20.1529 29.0302 22.0603 27.1222 22.0603 24.7687C22.0603 22.4151 20.1529 20.5072 17.8 20.5072C15.4471 20.5072 13.5397 22.4151 13.5397 24.7687C13.5397 27.1222 15.4471 29.0302 17.8 29.0302Z" fill="#365AE3"/>
<path d="M17.8948 28.9096C20.26 28.9096 22.1773 26.9917 22.1773 24.6258C22.1773 22.26 20.26 20.3421 17.8948 20.3421C15.5296 20.3421 13.6123 22.26 13.6123 24.6258C13.6123 26.9917 15.5296 28.9096 17.8948 28.9096Z" fill="#375BE3"/>
<path d="M17.989 28.789C20.3664 28.789 22.2937 26.8612 22.2937 24.483C22.2937 22.1049 20.3664 20.1771 17.989 20.1771C15.6116 20.1771 13.6843 22.1049 13.6843 24.483C13.6843 26.8612 15.6116 28.789 17.989 28.789Z" fill="#375CE3"/>
<path d="M18.0838 28.669C20.4735 28.669 22.4108 26.7312 22.4108 24.3408C22.4108 21.9504 20.4735 20.0126 18.0838 20.0126C15.6941 20.0126 13.7568 21.9504 13.7568 24.3408C13.7568 26.7312 15.6941 28.669 18.0838 28.669Z" fill="#385DE3"/>
<path d="M18.1786 28.5478C20.5803 28.5478 22.5272 26.6003 22.5272 24.198C22.5272 21.7956 20.5803 19.8481 18.1786 19.8481C15.7769 19.8481 13.83 21.7956 13.83 24.198C13.83 26.6003 15.7769 28.5478 18.1786 28.5478Z" fill="#385EE2"/>
<path d="M18.2734 28.4272C20.6874 28.4272 22.6443 26.4698 22.6443 24.0551C22.6443 21.6404 20.6874 19.683 18.2734 19.683C15.8594 19.683 13.9025 21.6404 13.9025 24.0551C13.9025 26.4698 15.8594 28.4272 18.2734 28.4272Z" fill="#395FE2"/>
<path d="M18.3682 28.3067C20.7945 28.3067 22.7613 26.3392 22.7613 23.9123C22.7613 21.4854 20.7945 19.5179 18.3682 19.5179C15.942 19.5179 13.9751 21.4854 13.9751 23.9123C13.9751 26.3392 15.942 28.3067 18.3682 28.3067Z" fill="#3A60E2"/>
<path d="M18.463 28.1861C20.9015 28.1861 22.8784 26.2087 22.8784 23.7695C22.8784 21.3302 20.9015 19.3528 18.463 19.3528C16.0245 19.3528 14.0477 21.3302 14.0477 23.7695C14.0477 26.2087 16.0245 28.1861 18.463 28.1861Z" fill="#3A61E2"/>
<path d="M18.5578 28.0654C21.0086 28.0654 22.9954 26.0781 22.9954 23.6266C22.9954 21.1751 21.0086 19.1877 18.5578 19.1877C16.107 19.1877 14.1202 21.1751 14.1202 23.6266C14.1202 26.0781 16.107 28.0654 18.5578 28.0654Z" fill="#3B62E1"/>
<path d="M18.6526 27.9449C21.1157 27.9449 23.1124 25.9476 23.1124 23.4838C23.1124 21.02 21.1157 19.0227 18.6526 19.0227C16.1895 19.0227 14.1928 21.02 14.1928 23.4838C14.1928 25.9476 16.1895 27.9449 18.6526 27.9449Z" fill="#3B63E1"/>
<path d="M18.7474 27.8249C21.2228 27.8249 23.2295 25.8176 23.2295 23.3416C23.2295 20.8655 21.2228 18.8582 18.7474 18.8582C16.2721 18.8582 14.2654 20.8655 14.2654 23.3416C14.2654 25.8176 16.2721 27.8249 18.7474 27.8249Z" fill="#3C64E1"/>
<path d="M18.5262 27.8249C21.0016 27.8249 23.0083 25.8176 23.0083 23.3416C23.0083 20.8655 21.0016 18.8582 18.5262 18.8582C16.0509 18.8582 14.0442 20.8655 14.0442 23.3416C14.0442 25.8176 16.0509 27.8249 18.5262 27.8249Z" fill="#3B65E1"/>
<path d="M18.305 27.8249C20.7804 27.8249 22.7871 25.8176 22.7871 23.3416C22.7871 20.8655 20.7804 18.8582 18.305 18.8582C15.8296 18.8582 13.8229 20.8655 13.8229 23.3416C13.8229 25.8176 15.8296 27.8249 18.305 27.8249Z" fill="#3A66E2"/>
<path d="M18.0838 27.8249C20.5592 27.8249 22.5659 25.8176 22.5659 23.3416C22.5659 20.8655 20.5592 18.8582 18.0838 18.8582C15.6084 18.8582 13.6017 20.8655 13.6017 23.3416C13.6017 25.8176 15.6084 27.8249 18.0838 27.8249Z" fill="#3967E2"/>
<path d="M17.8626 27.8249C20.338 27.8249 22.3447 25.8176 22.3447 23.3416C22.3447 20.8655 20.338 18.8582 17.8626 18.8582C15.3872 18.8582 13.3806 20.8655 13.3806 23.3416C13.3806 25.8176 15.3872 27.8249 17.8626 27.8249Z" fill="#3868E3"/>
<path d="M17.6414 27.8249C20.1167 27.8249 22.1234 25.8176 22.1234 23.3416C22.1234 20.8655 20.1167 18.8582 17.6414 18.8582C15.166 18.8582 13.1593 20.8655 13.1593 23.3416C13.1593 25.8176 15.166 27.8249 17.6414 27.8249Z" fill="#3769E3"/>
<path d="M17.4202 27.8249C19.8955 27.8249 21.9022 25.8176 21.9022 23.3416C21.9022 20.8655 19.8955 18.8582 17.4202 18.8582C14.9448 18.8582 12.9381 20.8655 12.9381 23.3416C12.9381 25.8176 14.9448 27.8249 17.4202 27.8249Z" fill="#366AE4"/>
<path d="M17.1996 27.8249C19.675 27.8249 21.6816 25.8176 21.6816 23.3416C21.6816 20.8655 19.675 18.8582 17.1996 18.8582C14.7242 18.8582 12.7175 20.8655 12.7175 23.3416C12.7175 25.8176 14.7242 27.8249 17.1996 27.8249Z" fill="#356BE4"/>
<path d="M16.9783 27.8249C19.4537 27.8249 21.4604 25.8176 21.4604 23.3416C21.4604 20.8655 19.4537 18.8582 16.9783 18.8582C14.503 18.8582 12.4963 20.8655 12.4963 23.3416C12.4963 25.8176 14.503 27.8249 16.9783 27.8249Z" fill="#346CE5"/>
<path d="M16.7571 27.8249C19.2325 27.8249 21.2392 25.8176 21.2392 23.3416C21.2392 20.8655 19.2325 18.8582 16.7571 18.8582C14.2818 18.8582 12.2751 20.8655 12.2751 23.3416C12.2751 25.8176 14.2818 27.8249 16.7571 27.8249Z" fill="#336DE5"/>
<path d="M16.536 27.8249C19.0113 27.8249 21.018 25.8176 21.018 23.3416C21.018 20.8655 19.0113 18.8582 16.536 18.8582C14.0606 18.8582 12.0539 20.8655 12.0539 23.3416C12.0539 25.8176 14.0606 27.8249 16.536 27.8249Z" fill="#326EE6"/>
<path d="M16.3148 27.8249C18.7901 27.8249 20.7968 25.8176 20.7968 23.3416C20.7968 20.8655 18.7901 18.8582 16.3148 18.8582C13.8394 18.8582 11.8327 20.8655 11.8327 23.3416C11.8327 25.8176 13.8394 27.8249 16.3148 27.8249Z" fill="#316FE6"/>
<path d="M16.0935 27.8249C18.5689 27.8249 20.5756 25.8176 20.5756 23.3416C20.5756 20.8655 18.5689 18.8582 16.0935 18.8582C13.6181 18.8582 11.6115 20.8655 11.6115 23.3416C11.6115 25.8176 13.6181 27.8249 16.0935 27.8249Z" fill="#3070E7"/>
<path d="M15.8723 27.8249C18.3477 27.8249 20.3544 25.8176 20.3544 23.3416C20.3544 20.8655 18.3477 18.8582 15.8723 18.8582C13.3969 18.8582 11.3903 20.8655 11.3903 23.3416C11.3903 25.8176 13.3969 27.8249 15.8723 27.8249Z" fill="#2F71E7"/>
<path d="M15.6511 27.8249C18.1265 27.8249 20.1332 25.8176 20.1332 23.3416C20.1332 20.8655 18.1265 18.8582 15.6511 18.8582C13.1758 18.8582 11.1691 20.8655 11.1691 23.3416C11.1691 25.8176 13.1758 27.8249 15.6511 27.8249Z" fill="#2E72E8"/>
<path d="M15.4299 27.8249C17.9053 27.8249 19.912 25.8176 19.912 23.3416C19.912 20.8655 17.9053 18.8582 15.4299 18.8582C12.9546 18.8582 10.9479 20.8655 10.9479 23.3416C10.9479 25.8176 12.9546 27.8249 15.4299 27.8249Z" fill="#2D73E8"/>
<path d="M15.2087 27.8249C17.6841 27.8249 19.6908 25.8176 19.6908 23.3416C19.6908 20.8655 17.6841 18.8582 15.2087 18.8582C12.7334 18.8582 10.7267 20.8655 10.7267 23.3416C10.7267 25.8176 12.7334 27.8249 15.2087 27.8249Z" fill="#2C74E9"/>
<path d="M14.9875 27.8249C17.4629 27.8249 19.4695 25.8176 19.4695 23.3416C19.4695 20.8655 17.4629 18.8582 14.9875 18.8582C12.5121 18.8582 10.5054 20.8655 10.5054 23.3416C10.5054 25.8176 12.5121 27.8249 14.9875 27.8249Z" fill="#2B75E9"/>
<path d="M14.7663 27.8249C17.2417 27.8249 19.2484 25.8176 19.2484 23.3416C19.2484 20.8655 17.2417 18.8582 14.7663 18.8582C12.2909 18.8582 10.2842 20.8655 10.2842 23.3416C10.2842 25.8176 12.2909 27.8249 14.7663 27.8249Z" fill="#2A76EA"/>
<path d="M14.5457 27.8249C17.021 27.8249 19.0277 25.8176 19.0277 23.3416C19.0277 20.8655 17.021 18.8582 14.5457 18.8582C12.0703 18.8582 10.0636 20.8655 10.0636 23.3416C10.0636 25.8176 12.0703 27.8249 14.5457 27.8249Z" fill="#2977EA"/>
<path d="M14.3245 27.8249C16.7998 27.8249 18.8065 25.8176 18.8065 23.3416C18.8065 20.8655 16.7998 18.8582 14.3245 18.8582C11.8491 18.8582 9.84241 20.8655 9.84241 23.3416C9.84241 25.8176 11.8491 27.8249 14.3245 27.8249Z" fill="#2878EB"/>
<path d="M14.1033 27.8249C16.5786 27.8249 18.5853 25.8176 18.5853 23.3416C18.5853 20.8655 16.5786 18.8582 14.1033 18.8582C11.6279 18.8582 9.62122 20.8655 9.62122 23.3416C9.62122 25.8176 11.6279 27.8249 14.1033 27.8249Z" fill="#2779EB"/>
<path d="M13.882 27.8249C16.3574 27.8249 18.3641 25.8176 18.3641 23.3416C18.3641 20.8655 16.3574 18.8582 13.882 18.8582C11.4066 18.8582 9.39996 20.8655 9.39996 23.3416C9.39996 25.8176 11.4066 27.8249 13.882 27.8249Z" fill="#267AEC"/>
<path d="M13.6608 27.8249C16.1362 27.8249 18.1429 25.8176 18.1429 23.3416C18.1429 20.8655 16.1362 18.8582 13.6608 18.8582C11.1855 18.8582 9.17877 20.8655 9.17877 23.3416C9.17877 25.8176 11.1855 27.8249 13.6608 27.8249Z" fill="#257BEC"/>
<path d="M13.4396 27.8249C15.915 27.8249 17.9217 25.8176 17.9217 23.3416C17.9217 20.8655 15.915 18.8582 13.4396 18.8582C10.9643 18.8582 8.95758 20.8655 8.95758 23.3416C8.95758 25.8176 10.9643 27.8249 13.4396 27.8249Z" fill="#247CED"/>
<path d="M13.2184 27.8249C15.6938 27.8249 17.7005 25.8176 17.7005 23.3416C17.7005 20.8655 15.6938 18.8582 13.2184 18.8582C10.7431 18.8582 8.73639 20.8655 8.73639 23.3416C8.73639 25.8176 10.7431 27.8249 13.2184 27.8249Z" fill="#237DED"/>
<path d="M12.9973 27.8249C15.4726 27.8249 17.4793 25.8176 17.4793 23.3416C17.4793 20.8655 15.4726 18.8582 12.9973 18.8582C10.5219 18.8582 8.5152 20.8655 8.5152 23.3416C8.5152 25.8176 10.5219 27.8249 12.9973 27.8249Z" fill="#227EEE"/>
<path d="M12.776 27.8249C15.2514 27.8249 17.2581 25.8176 17.2581 23.3416C17.2581 20.8655 15.2514 18.8582 12.776 18.8582C10.3006 18.8582 8.29395 20.8655 8.29395 23.3416C8.29395 25.8176 10.3006 27.8249 12.776 27.8249Z" fill="#217FEE"/>
<path d="M12.5548 27.8249C15.0302 27.8249 17.0369 25.8176 17.0369 23.3416C17.0369 20.8655 15.0302 18.8582 12.5548 18.8582C10.0794 18.8582 8.07275 20.8655 8.07275 23.3416C8.07275 25.8176 10.0794 27.8249 12.5548 27.8249Z" fill="#2080EF"/>
<path d="M12.3336 27.8249C14.809 27.8249 16.8157 25.8176 16.8157 23.3416C16.8157 20.8655 14.809 18.8582 12.3336 18.8582C9.85825 18.8582 7.85156 20.8655 7.85156 23.3416C7.85156 25.8176 9.85825 27.8249 12.3336 27.8249Z" fill="#1F81EF"/>
<path d="M12.1124 27.8249C14.5878 27.8249 16.5945 25.8176 16.5945 23.3416C16.5945 20.8655 14.5878 18.8582 12.1124 18.8582C9.63706 18.8582 7.63037 20.8655 7.63037 23.3416C7.63037 25.8176 9.63706 27.8249 12.1124 27.8249Z" fill="#1E82F0"/>
<path d="M11.8918 27.8249C14.3672 27.8249 16.3738 25.8176 16.3738 23.3416C16.3738 20.8655 14.3672 18.8582 11.8918 18.8582C9.41642 18.8582 7.40973 20.8655 7.40973 23.3416C7.40973 25.8176 9.41642 27.8249 11.8918 27.8249Z" fill="#1E82F0"/>
<path d="M11.6706 27.8249C14.146 27.8249 16.1527 25.8176 16.1527 23.3416C16.1527 20.8655 14.146 18.8582 11.6706 18.8582C9.19522 18.8582 7.18854 20.8655 7.18854 23.3416C7.18854 25.8176 9.19522 27.8249 11.6706 27.8249Z" fill="#1D83F1"/>
<path d="M11.4494 27.8249C13.9248 27.8249 15.9315 25.8176 15.9315 23.3416C15.9315 20.8655 13.9248 18.8582 11.4494 18.8582C8.97403 18.8582 6.96735 20.8655 6.96735 23.3416C6.96735 25.8176 8.97403 27.8249 11.4494 27.8249Z" fill="#1C84F1"/>
<path d="M11.2282 27.8249C13.7035 27.8249 15.7102 25.8176 15.7102 23.3416C15.7102 20.8655 13.7035 18.8582 11.2282 18.8582C8.75278 18.8582 6.74609 20.8655 6.74609 23.3416C6.74609 25.8176 8.75278 27.8249 11.2282 27.8249Z" fill="#1B85F2"/>
<path d="M11.007 27.8249C13.4823 27.8249 15.489 25.8176 15.489 23.3416C15.489 20.8655 13.4823 18.8582 11.007 18.8582C8.53159 18.8582 6.5249 20.8655 6.5249 23.3416C6.5249 25.8176 8.53159 27.8249 11.007 27.8249Z" fill="#1A86F2"/>
<path d="M10.7858 27.8249C13.2611 27.8249 15.2678 25.8176 15.2678 23.3416C15.2678 20.8655 13.2611 18.8582 10.7858 18.8582C8.3104 18.8582 6.30371 20.8655 6.30371 23.3416C6.30371 25.8176 8.3104 27.8249 10.7858 27.8249Z" fill="#1987F3"/>
<path d="M10.5646 27.8249C13.0399 27.8249 15.0466 25.8176 15.0466 23.3416C15.0466 20.8655 13.0399 18.8582 10.5646 18.8582C8.0892 18.8582 6.08252 20.8655 6.08252 23.3416C6.08252 25.8176 8.0892 27.8249 10.5646 27.8249Z" fill="#1888F3"/>
<path d="M10.3434 27.8249C12.8188 27.8249 14.8254 25.8176 14.8254 23.3416C14.8254 20.8655 12.8188 18.8582 10.3434 18.8582C7.86801 18.8582 5.86133 20.8655 5.86133 23.3416C5.86133 25.8176 7.86801 27.8249 10.3434 27.8249Z" fill="#1789F4"/>
<path d="M10.1221 27.8249C12.5975 27.8249 14.6042 25.8176 14.6042 23.3416C14.6042 20.8655 12.5975 18.8582 10.1221 18.8582C7.64676 18.8582 5.64008 20.8655 5.64008 23.3416C5.64008 25.8176 7.64676 27.8249 10.1221 27.8249Z" fill="#168AF4"/>
<path d="M9.90094 27.8249C12.3763 27.8249 14.383 25.8176 14.383 23.3416C14.383 20.8655 12.3763 18.8582 9.90094 18.8582C7.42557 18.8582 5.41888 20.8655 5.41888 23.3416C5.41888 25.8176 7.42557 27.8249 9.90094 27.8249Z" fill="#158BF5"/>
<path d="M9.67975 27.8249C12.1551 27.8249 14.1618 25.8176 14.1618 23.3416C14.1618 20.8655 12.1551 18.8582 9.67975 18.8582C7.20438 18.8582 5.19769 20.8655 5.19769 23.3416C5.19769 25.8176 7.20438 27.8249 9.67975 27.8249Z" fill="#148CF5"/>
<path d="M9.4585 27.8249C11.9339 27.8249 13.9406 25.8176 13.9406 23.3416C13.9406 20.8655 11.9339 18.8582 9.4585 18.8582C6.98313 18.8582 4.97644 20.8655 4.97644 23.3416C4.97644 25.8176 6.98313 27.8249 9.4585 27.8249Z" fill="#138DF6"/>
<path d="M9.23731 27.8249C11.7127 27.8249 13.7194 25.8176 13.7194 23.3416C13.7194 20.8655 11.7127 18.8582 9.23731 18.8582C6.76193 18.8582 4.75525 20.8655 4.75525 23.3416C4.75525 25.8176 6.76193 27.8249 9.23731 27.8249Z" fill="#128EF6"/>
<path d="M9.01666 27.8249C11.492 27.8249 13.4987 25.8176 13.4987 23.3416C13.4987 20.8655 11.492 18.8582 9.01666 18.8582C6.54129 18.8582 4.53461 20.8655 4.53461 23.3416C4.53461 25.8176 6.54129 27.8249 9.01666 27.8249Z" fill="#118FF7"/>
<path d="M8.79547 27.8249C11.2708 27.8249 13.2775 25.8176 13.2775 23.3416C13.2775 20.8655 11.2708 18.8582 8.79547 18.8582C6.3201 18.8582 4.31342 20.8655 4.31342 23.3416C4.31342 25.8176 6.3201 27.8249 8.79547 27.8249Z" fill="#1090F7"/>
<path d="M8.57428 27.8249C11.0497 27.8249 13.0563 25.8176 13.0563 23.3416C13.0563 20.8655 11.0497 18.8582 8.57428 18.8582C6.09891 18.8582 4.09222 20.8655 4.09222 23.3416C4.09222 25.8176 6.09891 27.8249 8.57428 27.8249Z" fill="#0F91F8"/>
<path d="M8.35309 27.8249C10.8285 27.8249 12.8351 25.8176 12.8351 23.3416C12.8351 20.8655 10.8285 18.8582 8.35309 18.8582C5.87772 18.8582 3.87103 20.8655 3.87103 23.3416C3.87103 25.8176 5.87772 27.8249 8.35309 27.8249Z" fill="#0E92F8"/>
<path d="M8.13184 27.8249C10.6072 27.8249 12.6139 25.8176 12.6139 23.3416C12.6139 20.8655 10.6072 18.8582 8.13184 18.8582C5.65647 18.8582 3.64978 20.8655 3.64978 23.3416C3.64978 25.8176 5.65647 27.8249 8.13184 27.8249Z" fill="#0D93F9"/>
<path d="M7.91065 27.8249C10.386 27.8249 12.3927 25.8176 12.3927 23.3416C12.3927 20.8655 10.386 18.8582 7.91065 18.8582C5.43528 18.8582 3.42859 20.8655 3.42859 23.3416C3.42859 25.8176 5.43528 27.8249 7.91065 27.8249Z" fill="#0C94F9"/>
<path d="M7.68946 27.8249C10.1648 27.8249 12.1715 25.8176 12.1715 23.3416C12.1715 20.8655 10.1648 18.8582 7.68946 18.8582C5.21408 18.8582 3.2074 20.8655 3.2074 23.3416C3.2074 25.8176 5.21408 27.8249 7.68946 27.8249Z" fill="#0B95FA"/>
<path d="M7.46826 27.8249C9.94364 27.8249 11.9503 25.8176 11.9503 23.3416C11.9503 20.8655 9.94364 18.8582 7.46826 18.8582C4.99289 18.8582 2.98621 20.8655 2.98621 23.3416C2.98621 25.8176 4.99289 27.8249 7.46826 27.8249Z" fill="#0A96FA"/>
<path d="M7.24707 27.8249C9.72244 27.8249 11.7291 25.8176 11.7291 23.3416C11.7291 20.8655 9.72244 18.8582 7.24707 18.8582C4.7717 18.8582 2.76501 20.8655 2.76501 23.3416C2.76501 25.8176 4.7717 27.8249 7.24707 27.8249Z" fill="#0997FB"/>
<path d="M7.02582 27.8249C9.50119 27.8249 11.5079 25.8176 11.5079 23.3416C11.5079 20.8655 9.50119 18.8582 7.02582 18.8582C4.55045 18.8582 2.54376 20.8655 2.54376 23.3416C2.54376 25.8176 4.55045 27.8249 7.02582 27.8249Z" fill="#0898FB"/>
<path d="M6.80463 27.8249C9.28 27.8249 11.2867 25.8176 11.2867 23.3416C11.2867 20.8655 9.28 18.8582 6.80463 18.8582C4.32926 18.8582 2.32257 20.8655 2.32257 23.3416C2.32257 25.8176 4.32926 27.8249 6.80463 27.8249Z" fill="#0799FC"/>
<path d="M6.58344 27.8249C9.05881 27.8249 11.0655 25.8176 11.0655 23.3416C11.0655 20.8655 9.05881 18.8582 6.58344 18.8582C4.10807 18.8582 2.10138 20.8655 2.10138 23.3416C2.10138 25.8176 4.10807 27.8249 6.58344 27.8249Z" fill="#069AFC"/>
<path d="M6.36279 27.8249C8.83817 27.8249 10.8449 25.8176 10.8449 23.3416C10.8449 20.8655 8.83817 18.8582 6.36279 18.8582C3.88742 18.8582 1.88074 20.8655 1.88074 23.3416C1.88074 25.8176 3.88742 27.8249 6.36279 27.8249Z" fill="#059BFD"/>
<path d="M6.1416 27.8249C8.61698 27.8249 10.6237 25.8176 10.6237 23.3416C10.6237 20.8655 8.61698 18.8582 6.1416 18.8582C3.66623 18.8582 1.65955 20.8655 1.65955 23.3416C1.65955 25.8176 3.66623 27.8249 6.1416 27.8249Z" fill="#049CFD"/>
<path d="M5.92041 27.8249C8.39578 27.8249 10.4025 25.8176 10.4025 23.3416C10.4025 20.8655 8.39578 18.8582 5.92041 18.8582C3.44504 18.8582 1.43835 20.8655 1.43835 23.3416C1.43835 25.8176 3.44504 27.8249 5.92041 27.8249Z" fill="#039DFE"/>
<path d="M5.69916 27.8249C8.17453 27.8249 10.1812 25.8176 10.1812 23.3416C10.1812 20.8655 8.17453 18.8582 5.69916 18.8582C3.22379 18.8582 1.2171 20.8655 1.2171 23.3416C1.2171 25.8176 3.22379 27.8249 5.69916 27.8249Z" fill="#029EFE"/>
<path d="M5.47797 27.8249C7.95334 27.8249 9.96003 25.8176 9.96003 23.3416C9.96003 20.8655 7.95334 18.8582 5.47797 18.8582C3.0026 18.8582 0.995911 20.8655 0.995911 23.3416C0.995911 25.8176 3.0026 27.8249 5.47797 27.8249Z" fill="#019FFF"/>
<path d="M5.25678 27.8249C7.73215 27.8249 9.73883 25.8176 9.73883 23.3416C9.73883 20.8655 7.73215 18.8582 5.25678 18.8582C2.7814 18.8582 0.774719 20.8655 0.774719 23.3416C0.774719 25.8176 2.7814 27.8249 5.25678 27.8249Z" fill="#00A0FF"/>
<path d="M5.53652 27.4901C8.04066 27.4901 10.0707 25.4595 10.0707 22.9546C10.0707 20.4498 8.04066 18.4192 5.53652 18.4192C3.03238 18.4192 1.00238 20.4498 1.00238 22.9546C1.00238 25.4595 3.03238 27.4901 5.53652 27.4901Z" fill="#00A1FE"/>
<path d="M5.81627 27.1558C8.34917 27.1558 10.4025 25.1019 10.4025 22.5683C10.4025 20.0347 8.34917 17.9808 5.81627 17.9808C3.28336 17.9808 1.23004 20.0347 1.23004 22.5683C1.23004 25.1019 3.28336 27.1558 5.81627 27.1558Z" fill="#00A2FD"/>
<path d="M6.09595 26.8216C8.65761 26.8216 10.7343 24.7443 10.7343 22.1819C10.7343 19.6195 8.65761 17.5423 6.09595 17.5423C3.53428 17.5423 1.45764 19.6195 1.45764 22.1819C1.45764 24.7443 3.53428 26.8216 6.09595 26.8216Z" fill="#00A2FC"/>
<path d="M6.37624 26.4873C8.96667 26.4873 11.0666 24.3868 11.0666 21.7956C11.0666 19.2044 8.96667 17.1039 6.37624 17.1039C3.78581 17.1039 1.68585 19.2044 1.68585 21.7956C1.68585 24.3868 3.78581 26.4873 6.37624 26.4873Z" fill="#00A3FB"/>
<path d="M6.65599 26.1531C9.27518 26.1531 11.3985 24.0292 11.3985 21.4093C11.3985 18.7893 9.27518 16.6655 6.65599 16.6655C4.03679 16.6655 1.91351 18.7893 1.91351 21.4093C1.91351 24.0292 4.03679 26.1531 6.65599 26.1531Z" fill="#00A4FA"/>
<path d="M6.93573 25.8188C9.58369 25.8188 11.7303 23.6716 11.7303 21.0229C11.7303 18.3742 9.58369 16.227 6.93573 16.227C4.28777 16.227 2.14117 18.3742 2.14117 21.0229C2.14117 23.6716 4.28777 25.8188 6.93573 25.8188Z" fill="#00A5F9"/>
<path d="M7.21547 25.4846C9.8922 25.4846 12.0621 23.3141 12.0621 20.6366C12.0621 17.9591 9.8922 15.7886 7.21547 15.7886C4.53875 15.7886 2.36884 17.9591 2.36884 20.6366C2.36884 23.3141 4.53875 25.4846 7.21547 25.4846Z" fill="#00A5F8"/>
<path d="M7.49516 25.1498C10.2006 25.1498 12.3939 22.9559 12.3939 20.2497C12.3939 17.5434 10.2006 15.3495 7.49516 15.3495C4.78967 15.3495 2.59644 17.5434 2.59644 20.2497C2.59644 22.9559 4.78967 25.1498 7.49516 25.1498Z" fill="#00A6F7"/>
<path d="M7.77488 24.8161C10.5095 24.8161 12.7263 22.5986 12.7263 19.8633C12.7263 17.1279 10.5095 14.9105 7.77488 14.9105C5.0403 14.9105 2.82349 17.1279 2.82349 19.8633C2.82349 22.5986 5.0403 24.8161 7.77488 24.8161Z" fill="#00A7F6"/>
<path d="M8.05523 24.4818C10.8186 24.4818 13.0587 22.2411 13.0587 19.4769C13.0587 16.7128 10.8186 14.472 8.05523 14.472C5.29189 14.472 3.05176 16.7128 3.05176 19.4769C3.05176 22.2411 5.29189 24.4818 8.05523 24.4818Z" fill="#00A8F5"/>
<path d="M8.33491 24.1476C11.127 24.1476 13.3905 21.8835 13.3905 19.0906C13.3905 16.2977 11.127 14.0336 8.33491 14.0336C5.54281 14.0336 3.27936 16.2977 3.27936 19.0906C3.27936 21.8835 5.54281 24.1476 8.33491 24.1476Z" fill="#00A8F4"/>
<path d="M8.61466 23.8133C11.4355 23.8133 13.7223 21.5259 13.7223 18.7042C13.7223 15.8826 11.4355 13.5952 8.61466 13.5952C5.79379 13.5952 3.50702 15.8826 3.50702 18.7042C3.50702 21.5259 5.79379 23.8133 8.61466 23.8133Z" fill="#00A9F3"/>
<path d="M8.8944 23.4792C11.744 23.4792 14.0541 21.1684 14.0541 18.318C14.0541 15.4675 11.744 13.1568 8.8944 13.1568C6.04477 13.1568 3.73468 15.4675 3.73468 18.318C3.73468 21.1684 6.04477 23.4792 8.8944 23.4792Z" fill="#00AAF2"/>
<path d="M9.17408 23.1449C12.0525 23.1449 14.3859 20.8108 14.3859 17.9316C14.3859 15.0524 12.0525 12.7183 9.17408 12.7183C6.29568 12.7183 3.96228 15.0524 3.96228 17.9316C3.96228 20.8108 6.29568 23.1449 9.17408 23.1449Z" fill="#00ABF1"/>
<path d="M9.45383 22.8101C12.361 22.8101 14.7177 20.4527 14.7177 17.5447C14.7177 14.6367 12.361 12.2793 9.45383 12.2793C6.54666 12.2793 4.18994 14.6367 4.18994 17.5447C4.18994 20.4527 6.54666 22.8101 9.45383 22.8101Z" fill="#00ACF0"/>
<path d="M9.73357 22.4758C12.6695 22.4758 15.0495 20.0951 15.0495 17.1583C15.0495 14.2215 12.6695 11.8408 9.73357 11.8408C6.79764 11.8408 4.4176 14.2215 4.4176 17.1583C4.4176 20.0951 6.79764 22.4758 9.73357 22.4758Z" fill="#00ACEF"/>
<path d="M10.0139 22.1416C12.9786 22.1416 15.3819 19.7375 15.3819 16.772C15.3819 13.8064 12.9786 11.4024 10.0139 11.4024C7.04917 11.4024 4.64581 13.8064 4.64581 16.772C4.64581 19.7375 7.04917 22.1416 10.0139 22.1416Z" fill="#00ADEE"/>
<path d="M10.2936 21.8073C13.2871 21.8073 15.7137 19.3799 15.7137 16.3856C15.7137 13.3913 13.2871 10.9639 10.2936 10.9639C7.30015 10.9639 4.87347 13.3913 4.87347 16.3856C4.87347 19.3799 7.30015 21.8073 10.2936 21.8073Z" fill="#00AEED"/>
<path d="M10.5734 21.4731C13.5956 21.4731 16.0456 19.0224 16.0456 15.9993C16.0456 12.9762 13.5956 10.5255 10.5734 10.5255C7.55113 10.5255 5.10114 12.9762 5.10114 15.9993C5.10114 19.0224 7.55113 21.4731 10.5734 21.4731Z" fill="#00AFEC"/>
<path d="M10.853 21.1389C13.904 21.1389 16.3773 18.6648 16.3773 15.613C16.3773 12.5611 13.904 10.0871 10.853 10.0871C7.80205 10.0871 5.32874 12.5611 5.32874 15.613C5.32874 18.6648 7.80205 21.1389 10.853 21.1389Z" fill="#00AFEB"/>
<path d="M11.1328 20.8046C14.2125 20.8046 16.7092 18.3072 16.7092 15.2266C16.7092 12.146 14.2125 9.64862 11.1328 9.64862C8.05303 9.64862 5.5564 12.146 5.5564 15.2266C5.5564 18.3072 8.05303 20.8046 11.1328 20.8046Z" fill="#00B0EA"/>
<path d="M11.4125 20.4697C14.521 20.4697 17.041 17.9491 17.041 14.8397C17.041 11.7303 14.521 9.20959 11.4125 9.20959C8.30401 9.20959 5.78406 11.7303 5.78406 14.8397C5.78406 17.9491 8.30401 20.4697 11.4125 20.4697Z" fill="#00B1EA"/>
<path d="M11.6923 20.1355C14.8296 20.1355 17.3728 17.5915 17.3728 14.4534C17.3728 11.3152 14.8296 8.77118 11.6923 8.77118C8.55499 8.77118 6.01172 11.3152 6.01172 14.4534C6.01172 17.5915 8.55499 20.1355 11.6923 20.1355Z" fill="#00B2E9"/>
<path d="M11.9726 19.8012C15.1386 19.8012 17.7052 17.2339 17.7052 14.067C17.7052 10.9 15.1386 8.3327 11.9726 8.3327C8.80652 8.3327 6.23993 10.9 6.23993 14.067C6.23993 17.2339 8.80652 19.8012 11.9726 19.8012Z" fill="#00B2E8"/>
<path d="M12.2523 19.467C15.4471 19.467 18.037 16.8764 18.037 13.6807C18.037 10.4849 15.4471 7.89429 12.2523 7.89429C9.0575 7.89429 6.46759 10.4849 6.46759 13.6807C6.46759 16.8764 9.0575 19.467 12.2523 19.467Z" fill="#00B3E7"/>
<path d="M12.532 19.1327C15.7556 19.1327 18.3688 16.5188 18.3688 13.2943C18.3688 10.0698 15.7556 7.45581 12.532 7.45581C9.30841 7.45581 6.69519 10.0698 6.69519 13.2943C6.69519 16.5188 9.30841 19.1327 12.532 19.1327Z" fill="#00B4E6"/>
<path d="M12.8117 18.7991C16.0644 18.7991 18.7012 16.1615 18.7012 12.9079C18.7012 9.65434 16.0644 7.01678 12.8117 7.01678C9.55905 7.01678 6.92224 9.65434 6.92224 12.9079C6.92224 16.1615 9.55905 18.7991 12.8117 18.7991Z" fill="#00B5E5"/>
<path d="M13.0915 18.4649C16.3729 18.4649 19.033 15.804 19.033 12.5216C19.033 9.23925 16.3729 6.57837 13.0915 6.57837C9.81003 6.57837 7.1499 9.23925 7.1499 12.5216C7.1499 15.804 9.81003 18.4649 13.0915 18.4649Z" fill="#00B5E4"/>
<path d="M13.3712 18.13C16.6814 18.13 19.3648 15.4458 19.3648 12.1347C19.3648 8.82355 16.6814 6.13934 13.3712 6.13934C10.061 6.13934 7.37756 8.82355 7.37756 12.1347C7.37756 15.4458 10.061 18.13 13.3712 18.13Z" fill="#00B6E3"/>
<path d="M13.6515 17.7958C16.9904 17.7958 19.6972 15.0883 19.6972 11.7484C19.6972 8.40846 16.9904 5.70093 13.6515 5.70093C10.3125 5.70093 7.60577 8.40846 7.60577 11.7484C7.60577 15.0883 10.3125 17.7958 13.6515 17.7958Z" fill="#00B7E2"/>
<path d="M13.9312 17.4615C17.299 17.4615 20.029 14.7307 20.029 11.362C20.029 7.99331 17.299 5.26245 13.9312 5.26245C10.5635 5.26245 7.83344 7.99331 7.83344 11.362C7.83344 14.7307 10.5635 17.4615 13.9312 17.4615Z" fill="#00B8E1"/>
<path d="M14.2109 17.1273C17.6074 17.1273 20.3608 14.3731 20.3608 10.9757C20.3608 7.57822 17.6074 4.82404 14.2109 4.82404C10.8144 4.82404 8.06104 7.57822 8.06104 10.9757C8.06104 14.3731 10.8144 17.1273 14.2109 17.1273Z" fill="#00B9E0"/>
<path d="M14.4907 16.793C17.9159 16.793 20.6926 14.0155 20.6926 10.5893C20.6926 7.16307 17.9159 4.38556 14.4907 4.38556C11.0654 4.38556 8.2887 7.16307 8.2887 10.5893C8.2887 14.0155 11.0654 16.793 14.4907 16.793Z" fill="#00B9DF"/>
<path d="M14.7704 16.4588C18.2244 16.4588 21.0245 13.658 21.0245 10.203C21.0245 6.74798 18.2244 3.94714 14.7704 3.94714C11.3164 3.94714 8.51636 6.74798 8.51636 10.203C8.51636 13.658 11.3164 16.4588 14.7704 16.4588Z" fill="#00BADE"/>
<path d="M15.0501 16.1246C18.5329 16.1246 21.3562 13.3004 21.3562 9.81666C21.3562 6.33288 18.5329 3.50873 15.0501 3.50873C11.5673 3.50873 8.74396 6.33288 8.74396 9.81666C8.74396 13.3004 11.5673 16.1246 15.0501 16.1246Z" fill="#00BBDD"/>
<path d="M15.3298 15.7897C18.8414 15.7897 21.688 12.9422 21.688 9.42967C21.688 5.91712 18.8414 3.06964 15.3298 3.06964C11.8183 3.06964 8.97162 5.91712 8.97162 9.42967C8.97162 12.9422 11.8183 15.7897 15.3298 15.7897Z" fill="#00BCDC"/>
<path d="M15.6101 15.4555C19.1504 15.4555 22.0204 12.5847 22.0204 9.04335C22.0204 5.50203 19.1504 2.63123 15.6101 2.63123C12.0698 2.63123 9.19983 5.50203 9.19983 9.04335C9.19983 12.5847 12.0698 15.4555 15.6101 15.4555Z" fill="#00BCDB"/>
<path d="M15.8899 15.1213C19.4589 15.1213 22.3522 12.2271 22.3522 8.65704C22.3522 5.08694 19.4589 2.19281 15.8899 2.19281C12.3208 2.19281 9.42749 5.08694 9.42749 8.65704C9.42749 12.2271 12.3208 15.1213 15.8899 15.1213Z" fill="#00BDDA"/>
<path d="M16.1696 14.787C19.7675 14.787 22.6841 11.8695 22.6841 8.27066C22.6841 4.67179 19.7675 1.75433 16.1696 1.75433C12.5718 1.75433 9.65515 4.67179 9.65515 8.27066C9.65515 11.8695 12.5718 14.787 16.1696 14.787Z" fill="#00BED9"/>
<path d="M16.4494 14.4528C20.076 14.4528 23.0159 11.512 23.0159 7.88434C23.0159 4.2567 20.076 1.31592 16.4494 1.31592C12.8228 1.31592 9.88281 4.2567 9.88281 7.88434C9.88281 11.512 12.8228 14.4528 16.4494 14.4528Z" fill="#00BFD8"/>
<path d="M16.729 14.1185C20.3844 14.1185 23.3477 11.1544 23.3477 7.49796C23.3477 3.84155 20.3844 0.877441 16.729 0.877441C13.0737 0.877441 10.1104 3.84155 10.1104 7.49796C10.1104 11.1544 13.0737 14.1185 16.729 14.1185Z" fill="#00BFD7"/>
<path d="M17.0088 13.7843C20.6929 13.7843 23.6795 10.7968 23.6795 7.11164C23.6795 3.42646 20.6929 0.439026 17.0088 0.439026C13.3247 0.439026 10.3381 3.42646 10.3381 7.11164C10.3381 10.7968 13.3247 13.7843 17.0088 13.7843Z" fill="#00C0D6"/>
<path d="M17.2891 13.4494C21.002 13.4494 24.0119 10.4387 24.0119 6.72471C24.0119 3.01076 21.002 0 17.2891 0C13.5762 0 10.5663 3.01076 10.5663 6.72471C10.5663 10.4387 13.5762 13.4494 17.2891 13.4494Z" fill="#00C1D5"/>
<g clip-path="url(#clip0_2_3611)">
<path d="M47.6275 13.3232L39.7246 30.327H44.0338L45.4698 27.0487H51.2418L51.6311 30.327H55.9888L53.5764 13.8067C53.5156 13.3901 53.3065 13.0093 52.9873 12.7339C52.6682 12.4586 52.2603 12.307 51.8383 12.3071H49.2204C48.8854 12.3072 48.5574 12.403 48.2752 12.583C47.993 12.7631 47.7682 13.0199 47.6275 13.3232ZM47.0521 23.2844L50.1196 15.9019L50.8502 23.2844H47.0521ZM32.5927 30.4181L33.6745 23.8193L40.0771 23.6009L40.6373 20.2723L34.2564 20.0785L34.6217 17.6982C34.7025 17.1964 34.8649 16.824 35.1088 16.5811C35.3527 16.3382 35.743 16.2169 36.2796 16.2173H42.4374L42.9976 12.6715C40.6271 12.4449 38.1603 12.3234 35.597 12.3071C34.3481 12.3071 33.2648 12.6228 32.3469 13.2543C31.429 13.8857 30.8486 14.9867 30.6059 16.5572L30.1961 19.1488V19.1453L28.2959 30.4158L32.5927 30.4181Z" fill="#fff"/>
<path d="M71.6535 15.878L72.2137 12.3077H61.6344C61.217 12.3077 60.8132 12.4559 60.4955 12.7259C60.1777 12.9959 59.9668 13.37 59.9004 13.781L59.5304 16.0719H66.2233L57.8258 26.7818L57.2661 30.3271H68.113C68.5303 30.3271 68.934 30.1789 69.2517 29.909C69.5694 29.6392 69.7804 29.2653 69.8469 28.8543L70.2169 26.5628H63.2805L71.6535 15.878Z" fill="#fff"/>
<path d="M86.2259 12.3077H75.6465C75.2291 12.3077 74.8254 12.4559 74.5076 12.7259C74.1899 12.9959 73.9789 13.37 73.9126 13.781L73.542 16.0719H80.2355L71.8379 26.7818L71.2783 30.3271H82.1251C82.5424 30.3271 82.9461 30.1789 83.2638 29.909C83.5816 29.6392 83.7926 29.2653 83.8591 28.8543L84.2291 26.5628H77.2921L85.6633 15.8763L86.2259 12.3077Z" fill="#fff"/>
</g>
<defs>
<clipPath id="clip0_2_3611">
<rect width="57.9341" height="18.1099" fill="white" transform="translate(28.2912 12.3077)"/>
</clipPath>
</defs>
</svg>
