<?xml version="1.0" encoding="utf-8"?>
<!-- Generator: Adobe Illustrator 19.0.0, SVG Export Plug-In . SVG Version: 6.00 Build 0)  -->
<svg version="1.1" id="Layer_1" xmlns="http://www.w3.org/2000/svg" xmlns:xlink="http://www.w3.org/1999/xlink" x="0px" y="0px"
	 viewBox="0 0 103 109.4" style="enable-background:new 0 0 103 109.4;" xml:space="preserve">
<style type="text/css">
	.st0{fill:#F29028;}
	.st1{fill:#B6B8BA;}
	.st2{fill:#066292;}
	.st3{fill:#ACAEB0;}
	.st4{fill:#9E9EA0;}
	.st5{fill:#8E8E92;}
	.st6{fill:#DADDDF;}
	.st7{fill:#E3A666;}
	.st8{fill:#DFE2E4;}
</style>
<g>
	<path class="st0" d="M18.2,22.5c0-5.5,0-10.9,0.1-16.4c0-1,0-1.9,0-2.9c-0.1-1.4,0.4-2.4,1.7-3c0.5,0,1,0,1.4,0
		c1.5,0.8,2.2,2.2,3.4,3.3c3.9,3.6,8.5,5.6,13.7,5.5c11.4,0,20.6,9.3,20.4,20.8c-0.1,7.5,0,15,0,22.5c0,5.1,0,10.1,0.1,15.2
		c-0.1,0.1-0.2,0.1-0.3,0.1c-0.5-0.3-0.4-0.8-0.5-1.3c-1.6-8.5-8.7-15.2-17.4-16.1c-1.9-0.2-3.9-0.1-5.8-0.4
		c-8.7-1.5-15.2-8.5-16.7-16.6c-0.6-3.3-0.3-6.7-0.4-10C17.9,23,18,22.7,18.2,22.5z"/>
	<path class="st1" d="M18.2,22.5c0,2.2,0.1,4.5,0.1,6.7c-0.1,10.3,7.4,18.7,16.6,20.3c0.1,0,0.1,0.1,0.2,0.1
		c0.7,1.1,0.3,2.3,0.3,3.5c0.1,3,0.5,6,2.4,8.5c2.3,3.1,5.5,4.6,9.3,4.7c4.5,0.2,8,2.1,10.4,5.9c0.7,1.1,1.2,2.3,1.3,3.7
		c0,0.2,0,0.5,0.3,0.6c0,10.5,0,21,0,31.4c-0.5-3.1-1.1-6.2-2.3-9.1c-2.6-6-6.7-10.6-12.5-13.7c-3.6-2-7.5-3.1-11.6-3.3
		c-4.3-0.2-8.5-0.6-12.5-2.3C12.3,76,7,70.2,4.3,62c-0.9-2.9-1.2-5.8-1.2-8.8c0-12,0-24.1,0-36.1c0-1.8,0.7-2.9,2.2-3.5
		c1.4-0.5,2.8,0,3.9,1.4C11.6,18.1,14.7,20.6,18.2,22.5z"/>
	<path class="st2" d="M61.5,88.1c0-13.3-0.2-26.7,0.1-40c0.2-7.9,4.2-14,11.3-17.6c2.4-1.2,5.1-1.8,7.8-1.8
		c6.3-0.1,11.3-2.7,15.2-7.6c0.9-1.1,1.9-1.6,3-1.2c1.2,0.5,1.5,1.5,1.5,2.7c0,8.9,0,17.8,0,26.7c0,5.7-2,10.6-6,14.7
		c-0.1,0.1-0.2,0.2-0.3,0.4c-0.9,1.8-2.7,2.6-4.3,3.5c-3,1.7-6.2,2.2-9.6,2.3c-5.3,0.2-9.7,2.4-13.2,6.3c-2.6,2.9-4.2,6.4-4.9,10.2
		C62.1,87.2,62.2,87.9,61.5,88.1z"/>
	<path class="st3" d="M61.5,36.2c0-6.9-0.2-13.8,0-20.6c0.2-5.9,5-10.1,10.2-10.1c3.2,0,5.9-1.4,7.9-3.9c0.4-0.5,0.8-1.1,1.7-0.8
		c0.8,0.3,0.8,1,0.8,1.7c0,4.7,0,9.4,0,14.1C82,22.5,77.4,27,71.6,27.1c-5,0.1-9.4,4.1-10,9.1C61.6,36.3,61.5,36.3,61.5,36.2z"/>
	<path class="st4" d="M61.5,88.1c0.6-2.5,1-5,2.2-7.2c3.6-6.8,9-10.8,16.9-11c5.2-0.2,9.7-1.8,13.5-5.5c0.3,4.8-0.8,9.3-4.1,13
		c-3.2,3.6-7.2,5.5-12,5.6c-8.5,0.1-15.1,6.2-16.3,14.1c0,0.1-0.1,0.1-0.2,0.5C61.5,94.1,61.5,91.1,61.5,88.1z"/>
	<path class="st5" d="M59,76.5c-0.4,0-0.4-0.3-0.4-0.6c-1-5.1-5.8-9.2-11.4-9.2c-6.3,0-11.3-4.7-11.9-10.9c-0.2-2.1-0.1-4.1-0.2-6.1
		c3.2,0.4,6.4,0.1,9.5,1.2c7.3,2.5,11.8,7.4,13.7,14.8c0.2,0.7,0.3,1.4,0.5,2c0.3,0.5,0,1,0.2,1.4C59,71.6,59,74.1,59,76.5z"/>
	<path class="st6" d="M61.5,36.2c0.1,0,0.1,0,0.2,0c0,0.5,0.1,1-0.1,1.5C61.4,37.2,61.5,36.7,61.5,36.2z"/>
	<path class="st7" d="M59,69.1c-0.3-0.5-0.1-1-0.2-1.4c0.1,0,0.1,0,0.2,0C59,68.1,59,68.6,59,69.1z"/>
	<path class="st8" d="M61.5,98.3c0.2,0.4,0.2,0.6,0.1,0.9C61.4,98.9,61.4,98.7,61.5,98.3z"/>
</g>
</svg>
