<svg width="50" height="50" viewBox="0 0 50 50" fill="none" xmlns="http://www.w3.org/2000/svg">
  <circle cx="25" cy="25" r="25" fill="white"/>
  <g transform="translate(5.5, 11)">
    <path fill-rule="evenodd" clip-rule="evenodd" d="M8.94235 0L6.10959 3.00387C7.03445 3.93885 7.94984 4.76126 8.85404 5.48015V10.1418C6.78634 9.02494 4.83087 7.69529 2.98992 6.31199L0 9.48253C3.07994 11.8413 6.03589 13.5685 8.85404 14.7787V22.6021L12.9261 23.7197V16.2072C17.0448 17.326 20.8215 17.3564 24.206 16.7146V26.8156L28.278 27.9333V15.5741C32.3153 14.069 35.6253 11.6909 38.0908 9.41093L35.3902 6.5472C32.942 8.672 30.5708 10.2155 28.278 11.2791V7.02587C29.8858 5.99195 31.3091 4.75718 32.5148 3.49812L29.8355 0.656899C20.8311 9.98837 13.1018 4.00824 8.94235 0ZM12.9261 8.08814V11.9704C16.4131 13.2056 20.1761 13.6589 24.206 12.7044V8.99123C20.8831 10.0804 17.0616 10.1071 12.9261 8.08814Z" fill="#1A1A1A"/>
  </g>
</svg>
